<?xml version="1.0" encoding="UTF-8"?>
<svg id="Layer_2" data-name="Layer 2" xmlns="http://www.w3.org/2000/svg" viewBox="0 0 207.32 207.32">
  <defs>
    <style>
      .cls-1 {
        fill: #303841;
      }

      .cls-1, .cls-2, .cls-3 {
        stroke-width: 0px;
      }

      .cls-2 {
        fill: #00adb5;
      }

      .cls-3 {
        fill: #eee;
      }
    </style>
  </defs>
  <g id="Layer_1-2" data-name="Layer 1">
    <g>
      <rect class="cls-1" width="207.32" height="207.32"/>
      <path class="cls-2" d="m79.67,121.36v55.77H31.88V23.65h65.56c16.34,0,28.77,1.87,37.28,5.62,8.51,3.75,15.25,9.48,20.24,17.2,4.98,7.72,7.48,16.38,7.48,25.97,0,14.62-5.1,26.42-15.29,35.42-10.2,9-23.8,13.49-40.82,13.49h-26.65Zm-.67-32.95h15.74c13.87,0,20.8-5.1,20.8-15.29,0-9.59-6.41-14.39-19.23-14.39h-17.32v29.69Z"/>
      <path class="cls-3" d="m90.8,121.36v55.77h-47.79V23.65h65.56c16.34,0,28.77,1.87,37.27,5.62,8.51,3.75,15.25,9.48,20.24,17.2,4.98,7.72,7.48,16.38,7.48,25.97,0,14.62-5.1,26.42-15.29,35.42-10.2,9-23.8,13.49-40.82,13.49h-26.65Zm-.67-32.95h15.74c13.87,0,20.8-5.1,20.8-15.29,0-9.59-6.41-14.39-19.23-14.39h-17.32v29.69Z"/>
    </g>
  </g>
</svg>